<svg width="157" height="51" viewBox="0 0 157 51" fill="none" xmlns="http://www.w3.org/2000/svg">
<g clip-path="url(#clip0_271_534)">
<path d="M79.7901 19.9929H76.9354L76.8622 20.2198C76.4523 21.8533 76.3982 22.9681 76.4231 23.3205C76.7158 26.0431 78.1798 26.7736 79.0582 27.1019C81.9129 27.9338 83.6696 25.1356 84.548 23.6986C85.4996 22.3373 85.9387 22.5642 86.5243 22.7155C87.5784 23.6835 86.7688 25.7406 86.2315 26.6481H89.3058C90.7698 22.5945 88.9882 20.2954 87.9883 19.6904C84.6944 17.8753 82.6273 20.7038 81.8397 22.1861C80.5953 24.5305 79.4974 23.9754 79.2046 23.1692C78.7947 22.1407 79.4242 20.6236 79.7901 19.9929Z" fill="#00529D"/>
<path d="M89.891 39.0508H76.4227V42.2271H89.891V39.0508Z" fill="#00529D"/>
<path d="M13.4688 9.70752V19.2366H21.0813V51H32.5001V19.2366H40.1127V9.70752H13.4688Z" fill="#00529D"/>
<path d="M54.1662 9.70752H44.9433V51H54.1662V33.9082H62.3643V51H71.5872V9.70752H62.3643V24.9842H54.1662V9.70752Z" fill="#00529D"/>
<path d="M135.415 9.70752H126.193V51H135.415V34.1351L142.808 51H152.471L143.833 30.8075L152.837 9.70752H143.614L135.415 28.8412V9.70752Z" fill="#00529D"/>
<path d="M94.7177 51H102.916V33.0007L102.623 27.7068V27.5556L112.871 51H121.362V9.70752H113.163V27.7068L113.456 33.0007V33.757L102.916 9.70752H94.7177V51Z" fill="#00529D"/>
<path d="M89.8863 51.0001H76.418V44.1936H79.3459V47.5212H81.6882V44.6474H84.4697V47.5212H89.8863V51.0001Z" fill="#00529D"/>
<path fill-rule="evenodd" clip-rule="evenodd" d="M76.4227 34.2108C76.4227 33.6814 76.4959 32.2445 76.8618 31.4882C77.0814 30.8575 77.9013 29.5219 79.4238 29.2194C80.3753 28.9668 82.5713 28.9623 83.7424 30.9588L89.8866 28.4631V31.6395L83.596 34.2108H89.8866V37.2359H76.4227V34.2108ZM78.907 34.2108C78.907 33.5044 79.2437 32.0932 80.5905 32.0932C81.1512 32.1432 81.9813 32.3958 82.2741 34.2108H78.907Z" fill="#00529D"/>
<path d="M76.418 9.70752V17.8753H79.4923V15.6064H89.8863V12.1276H79.4923V9.70752H76.418Z" fill="#00529D"/>
<path d="M13.3717 8.00299C11.8229 8.70784 11.2622 9.75603 12.0615 10.541C12.3001 10.774 12.6412 10.8526 12.9662 10.8935C14.0759 11.0311 15.2031 10.8451 16.3172 10.9373C17.4313 11.0296 18.6229 11.4894 19.1456 12.5104C19.4325 13.07 19.535 13.8051 20.0722 14.1076C21.3049 14.8034 22.2301 12.3758 23.6326 12.2835C24.2972 12.2396 24.8638 12.7433 25.4874 12.9823C27.7067 13.8308 29.1385 11.3941 31.0123 12.3455C31.6579 12.6737 32.5202 13.9049 33.2405 13.9049C34.031 13.9049 34.4073 12.8371 34.9182 12.6798C35.8829 12.3833 36.5798 13.6312 36.8125 14.6431C37.0468 15.655 36.9765 17.2477 38.0554 17.2477C39.1344 17.2477 38.9118 13.6115 40.3333 13.0791C41.0624 12.8068 41.8719 12.8371 42.5981 12.5542C43.3227 12.2729 43.9771 11.4561 43.6755 10.718C43.4003 10.0464 42.5702 9.89973 41.9012 9.66679C39.8971 8.96951 38.7259 6.89884 37.4479 5.1579C36.1698 3.41696 34.1672 1.74862 32.144 2.37935C30.5746 2.86942 29.5879 4.6043 28.0083 5.05656C25.7538 5.69939 23.4891 3.46233 21.1878 3.90248C20.4778 4.03861 19.8395 4.41977 19.2158 4.7964C17.1795 6.02458 14.9191 7.29815 13.3703 8.00299H13.3717Z" fill="white"/>
<g opacity="0.35">
<path d="M21.4486 4.91117L21.4208 4.92327C21.4091 4.93083 21.3989 4.93991 21.393 4.95201C21.3857 4.96411 21.3827 4.97772 21.3827 4.99285C21.3827 5.00797 21.3857 5.02158 21.393 5.03369C21.4003 5.04579 21.4091 5.05637 21.4208 5.06242L21.4486 5.07452C21.4633 5.0836 21.4794 5.08814 21.4955 5.08814C21.5116 5.08814 21.5277 5.0836 21.5423 5.07452C21.5701 5.05789 21.5877 5.02612 21.5877 4.99133C21.5877 4.95655 21.5701 4.92629 21.5423 4.90814C21.5277 4.89907 21.5116 4.89453 21.4955 4.89453C21.4794 4.89453 21.4633 4.89907 21.4486 4.90814V4.91117Z" fill="#336EC2"/>
</g>
<g opacity="0.35">
<path d="M20.5677 5.88527C20.5677 5.87317 20.5677 5.86106 20.5677 5.84896C20.5662 5.83384 20.5662 5.8172 20.5633 5.80208L20.5589 5.79149C20.5589 5.79149 20.5531 5.78241 20.5472 5.77939C20.5399 5.77334 20.5296 5.7688 20.5209 5.77031C20.5135 5.77031 20.5062 5.77334 20.4989 5.77636C20.4945 5.77939 20.4901 5.78241 20.4872 5.78846C20.4828 5.793 20.4813 5.79754 20.4799 5.80359C20.4769 5.81871 20.4769 5.83384 20.4755 5.85048C20.4755 5.86258 20.4755 5.87468 20.4755 5.88678C20.4755 5.89888 20.4799 5.91249 20.4886 5.92157C20.4974 5.93064 20.5106 5.93669 20.5223 5.93518C20.534 5.93367 20.5472 5.93064 20.556 5.92157C20.5648 5.91249 20.5692 5.90039 20.5692 5.88678L20.5677 5.88527Z" fill="#336EC2"/>
</g>
<g opacity="0.15">
<path d="M22.3885 5.86579C22.4573 5.86579 22.4573 5.75537 22.3885 5.75537C22.3197 5.75537 22.3197 5.86579 22.3885 5.86579Z" fill="#336EC2"/>
</g>
<g opacity="0.35">
<path d="M33.1702 3.40782H33.1512C33.16 3.41236 33.1687 3.41992 33.1775 3.42597C33.1775 3.41387 33.1731 3.40177 33.1673 3.39118L33.1541 3.37454C33.1468 3.36698 33.138 3.36093 33.1277 3.3579C33.1175 3.35337 33.1073 3.35034 33.097 3.35034C33.0853 3.35034 33.075 3.35185 33.0663 3.3579C33.056 3.36093 33.0472 3.36698 33.0399 3.37454C33.0326 3.38211 33.0267 3.39118 33.0238 3.40177C33.0194 3.41236 33.0165 3.42294 33.0165 3.43353L33.0194 3.45622C33.0238 3.46983 33.0297 3.48193 33.0399 3.49252L33.056 3.50613C33.0692 3.5137 33.0824 3.51672 33.097 3.51672L33.119 3.5137C33.1292 3.51067 33.138 3.50613 33.1468 3.49857C33.1556 3.49252 33.1629 3.48496 33.1673 3.47588C33.1731 3.4653 33.1775 3.45319 33.1775 3.44109L33.1512 3.46227H33.1702C33.1702 3.46227 33.1834 3.45773 33.1878 3.45319C33.1922 3.44866 33.1951 3.44109 33.1951 3.43504C33.1951 3.42899 33.1922 3.42143 33.1878 3.41689C33.1834 3.41236 33.1775 3.40933 33.1702 3.40933V3.40782Z" fill="#336EC2"/>
</g>
<g opacity="0.15">
<path d="M31.8764 4.61187C31.9539 4.61187 31.9539 4.48633 31.8764 4.48633C31.7988 4.48633 31.7988 4.61187 31.8764 4.61187Z" fill="#336EC2"/>
</g>
<g opacity="0.35">
<path d="M34.7779 4.62233L34.7838 4.56485V4.57393C34.7838 4.57393 34.7838 4.56485 34.7867 4.56032C34.794 4.53763 34.775 4.51343 34.7516 4.51343C34.7281 4.51343 34.7091 4.53763 34.7164 4.56032C34.7164 4.56485 34.7193 4.56939 34.7208 4.57393V4.56485C34.7208 4.58452 34.7237 4.60418 34.7252 4.62233C34.7252 4.62989 34.7281 4.63594 34.7325 4.64199C34.7369 4.64653 34.7442 4.65107 34.7516 4.64956C34.7589 4.64804 34.7662 4.64653 34.7706 4.64199C34.775 4.63746 34.7779 4.62989 34.7779 4.62233Z" fill="#336EC2"/>
</g>
<g opacity="0.15">
<path d="M38.8477 9.05105C38.9062 9.05105 38.9062 8.95728 38.8477 8.95728C38.7891 8.95728 38.7891 9.05105 38.8477 9.05105Z" fill="#336EC2"/>
</g>
<g opacity="0.35">
<path d="M38.2002 10.7799C38.2836 10.7799 38.2836 10.6453 38.2002 10.6453C38.1167 10.6453 38.1167 10.7799 38.2002 10.7799Z" fill="#336EC2"/>
</g>
<g opacity="0.35">
<path d="M37.1232 9.84971C37.1583 9.84971 37.1583 9.79224 37.1232 9.79224C37.088 9.79224 37.088 9.84971 37.1232 9.84971Z" fill="#336EC2"/>
</g>
<g opacity="0.15">
<path d="M24.905 9.80129C24.9738 9.80129 24.9738 9.69238 24.905 9.69238C24.8362 9.69238 24.8362 9.80129 24.905 9.80129Z" fill="#336EC2"/>
</g>
<g opacity="0.15">
<path d="M22.6047 9.19325C22.656 9.19325 22.656 9.11157 22.6047 9.11157C22.5535 9.11157 22.5535 9.19325 22.6047 9.19325Z" fill="#336EC2"/>
</g>
<g opacity="0.35">
<path d="M20.0886 9.40206C20.1223 9.40206 20.1223 9.34912 20.0886 9.34912C20.0549 9.34912 20.0549 9.40206 20.0886 9.40206Z" fill="#336EC2"/>
</g>
<g opacity="0.35">
<path d="M24.2579 8.69269C24.3311 8.69269 24.3311 8.57471 24.2579 8.57471C24.1847 8.57471 24.1847 8.69269 24.2579 8.69269Z" fill="#336EC2"/>
</g>
<g opacity="0.15">
<path d="M31.6615 9.35212C31.7259 9.35212 31.7259 9.24927 31.6615 9.24927C31.5971 9.24927 31.5971 9.35212 31.6615 9.35212Z" fill="#336EC2"/>
</g>
<g opacity="0.15">
<path d="M28.3536 6.81547C28.4034 6.81547 28.4034 6.73682 28.3536 6.73682C28.3038 6.73682 28.3038 6.81547 28.3536 6.81547Z" fill="#336EC2"/>
</g>
<mask id="mask0_271_534" style="mask-type:luminance" maskUnits="userSpaceOnUse" x="11" y="2" width="33" height="16">
<path d="M13.3717 8.00299C11.8229 8.70784 11.2622 9.75603 12.0615 10.541C12.3001 10.774 12.6412 10.8526 12.9662 10.8935C14.0759 11.0311 15.2031 10.8451 16.3172 10.9373C17.4313 11.0296 18.6229 11.4894 19.1456 12.5104C19.4325 13.07 19.535 13.8051 20.0722 14.1076C21.3049 14.8034 22.2301 12.3758 23.6326 12.2835C24.2972 12.2396 24.8638 12.7433 25.4874 12.9823C27.7067 13.8308 29.1385 11.3941 31.0123 12.3455C31.6579 12.6737 32.5202 13.9049 33.2405 13.9049C34.031 13.9049 34.4073 12.8371 34.9182 12.6798C35.8829 12.3833 36.5798 13.6312 36.8125 14.6431C37.0468 15.655 36.9765 17.2477 38.0554 17.2477C39.1344 17.2477 38.9118 13.6115 40.3333 13.0791C41.0624 12.8068 41.8719 12.8371 42.5981 12.5542C43.3227 12.2729 43.9771 11.4561 43.6755 10.718C43.4003 10.0464 42.5702 9.89973 41.9012 9.66679C39.8971 8.96951 38.7259 6.89884 37.4479 5.1579C36.1698 3.41696 34.1672 1.74862 32.144 2.37935C30.5746 2.86942 29.5879 4.6043 28.0083 5.05656C25.7538 5.69939 23.4891 3.46233 21.1878 3.90248C20.4778 4.03861 19.8395 4.41977 19.2158 4.7964C17.1795 6.02458 14.9191 7.29815 13.3703 8.00299H13.3717Z" fill="white"/>
</mask>
<g mask="url(#mask0_271_534)">
<g opacity="0.3">
<path d="M11.252 7.70806C10.3956 8.71995 10.6678 10.3142 11.6253 11.196C13.3074 12.7448 15.7639 11.3926 17.5601 12.4121C18.8616 13.1502 19.3183 15.0772 21.0839 14.9395C21.8612 14.879 22.2931 14.3421 22.9036 13.9443C24.0205 13.2152 25.0263 14.1923 26.2223 14.2286C27.1241 14.2559 27.9249 13.8868 28.7476 13.5556C30.0462 13.0352 30.7562 13.2803 31.9332 13.973C32.5759 14.3512 33.261 14.7066 34.0237 14.6174C34.3619 14.578 34.6547 14.448 34.9504 14.2801C35.577 13.9276 35.4818 13.9836 35.8024 14.7217C36.3631 16.015 36.9765 18.2006 38.8577 17.6667C40.7257 17.1373 40.0128 14.7732 41.4709 13.9549C42.945 13.1275 44.7428 12.6979 44.8423 10.6061C44.9126 9.12531 43.7473 7.01229 42.0842 7.51445C41.5865 7.66419 41.4665 8.27224 41.7929 8.65491C42.3434 9.29925 43.453 9.87251 42.9202 10.9434C42.5674 11.6497 41.4694 11.8751 40.8399 12.1776C40.2528 12.459 39.698 12.8008 39.3013 13.3453C38.824 14.0018 38.9953 14.938 38.5971 15.537C38.0071 16.4218 37.6675 14.7611 37.5109 14.3572C37.3425 13.9246 37.1785 13.4784 36.918 13.0942C36.5666 12.5785 36.1538 12.167 35.5067 12.1625C34.5551 12.1565 34.1072 13.0171 33.1263 12.6526C32.3182 12.3531 31.7151 11.6891 30.8484 11.4819C29.0536 11.0538 27.5604 12.7857 25.8417 12.3969C24.9882 12.2049 24.2855 11.7042 23.3823 11.8116C22.4395 11.9235 22.0998 12.71 21.2961 13.0171C20.4192 13.3529 19.9566 12.2835 19.4545 11.7284C18.8909 11.1052 18.2248 10.6636 17.4225 10.4518C16.0537 10.0903 11.1993 10.9071 12.0161 8.16333C12.1464 7.72469 11.5535 7.34353 11.2505 7.70201L11.252 7.70806Z" fill="#336EC2"/>
</g>
<path opacity="0.15" d="M46.7319 8.71233C46.6484 6.46015 45.1362 4.94609 43.318 3.95386C40.595 2.46854 37.8076 5.36356 40.1412 7.71556C40.3022 7.87741 40.2993 6.0563 40.4281 6.23024C40.5965 6.45864 39.8747 4.82509 40.0446 8.16025C40.0929 9.10106 41.9316 9.6123 40.8117 9.94203C40.1295 10.1432 39.2306 10.1901 38.9905 11.2292C38.7782 12.1519 37.6627 12.0626 36.594 10.9811C35.6776 10.0555 34.5416 9.95413 33.3807 9.96472C32.3778 9.97379 31.886 10.4034 31.3443 10.1099C30.4732 9.63952 29.63 8.99972 28.6404 9.04963C27.7459 9.09501 27.2584 9.55482 26.5806 10.1387C26.4532 10.2476 25.7579 10.9902 24.9995 10.7331C24.6335 10.6091 24.0319 10.0948 23.6483 9.95413C23.2018 9.78926 22.7202 9.66675 22.2414 9.65313C21.751 9.63801 21.2196 9.74994 20.7497 9.8785C20.6794 9.89817 20.4203 9.99648 20.2095 10.0872C19.9679 10.1916 19.5902 10.1689 19.3926 9.99194C19.0998 9.72725 18.8539 9.36726 18.7163 9.20088C18.1468 8.50814 17.8115 8.30999 16.7575 8.30999C16.1807 8.30999 14.9846 8.75619 14.2658 8.30999C13.752 7.99085 15.6654 7.09693 15.1281 6.77476C14.6962 6.51612 11.581 6.37242 11.1564 6.70972C9.04539 8.38562 10.2327 11.3653 12.329 12.3924C13.4182 12.9263 14.5542 12.5754 15.6259 12.9233C16.4486 13.191 17.0415 14.1197 17.8203 14.5341C18.8788 15.0968 20.0016 15.1467 21.1449 14.8502C21.5666 14.7413 21.8359 14.5659 22.1917 14.6218C22.7509 14.7096 23.3116 15.245 23.8899 15.3827C24.941 15.6322 26.0082 15.4855 27.011 15.1089C27.497 14.9259 27.964 14.6339 28.4691 14.5069C28.5145 14.4993 28.554 14.4918 28.5906 14.4842C28.7194 14.4585 28.8512 14.4782 28.9683 14.5387C29.0693 14.5901 29.1674 14.6445 29.264 14.705C29.9374 15.0317 30.5757 15.307 31.3297 15.3509C31.4965 15.3615 31.6898 15.3312 31.8918 15.2889C32.1553 15.2329 32.4144 15.3721 32.533 15.6216C32.8785 16.3477 33.4802 16.93 34.2649 17.0676C35.0832 17.2098 35.8708 17.3475 36.654 17.4019C36.6804 17.4034 36.7068 17.408 36.7316 17.414C37.8413 17.6953 38.9934 17.5229 40.1734 16.8619C40.1866 16.8544 40.2012 16.8483 40.2144 16.8423C40.8073 16.5972 41.3768 16.2947 41.9213 15.9453C41.9448 15.9302 41.9682 15.9181 41.9931 15.906C42.605 15.6353 43.2169 15.3675 43.7659 14.9652C44.7731 14.2271 45.4949 13.1804 45.9077 11.9825C45.9648 11.8176 46.0131 11.6527 46.0555 11.4863C46.4918 10.6272 46.7656 9.697 46.729 8.71384L46.7319 8.71233Z" fill="#336EC2"/>
</g>
<mask id="mask1_271_534" style="mask-type:luminance" maskUnits="userSpaceOnUse" x="125" y="2" width="29" height="12">
<path d="M152.514 7.73807C151.731 7.08768 150.885 6.44938 149.895 6.26183C148.811 6.05461 147.675 6.41611 146.599 6.16654C145.218 5.8489 144.242 4.62374 143.082 3.7873C140.652 2.03426 137.342 2.03729 134.558 3.08397C131.773 4.13065 129.409 6.0894 127.163 8.08747C126.696 8.50342 126.212 8.95265 126.024 9.55918C125.837 10.1657 126.115 11.2578 127.127 11.0611C127.459 11.0657 127.778 10.9462 128.1 10.8615C128.86 10.6588 129.669 10.6361 130.431 10.8343C131.628 11.1443 132.638 11.9611 133.774 12.4587C135.032 13.0093 136.453 13.1575 137.791 12.8777C138.963 12.6327 140.053 12.0745 141.217 11.7947C142.381 11.5149 143.728 11.5694 144.612 12.3997C144.855 12.6281 145.059 12.9125 145.347 13.0758C145.635 13.2407 146.058 13.2331 146.234 12.9458C146.402 12.669 146.263 12.2984 146.353 11.9853C146.52 11.403 147.115 11.2805 147.515 11.7267C147.915 12.1729 147.56 13.5462 148.269 13.5462C149.191 13.5462 148.694 11.7735 148.944 11.4272C149.194 11.0808 149.872 11.164 149.895 11.9883C149.907 12.4224 149.955 12.8565 150.056 13.2785C150.157 13.7005 150.559 14.1165 150.954 13.9652C151.106 13.9062 151.222 13.7731 151.313 13.634C151.876 12.7658 151.744 11.5013 152.466 10.7707C152.782 10.4501 153.239 10.2655 153.451 9.8632C153.844 9.11751 153.156 8.26898 152.514 7.73807Z" fill="white"/>
</mask>
<g mask="url(#mask1_271_534)">
<path d="M152.514 7.73807C151.731 7.08768 150.885 6.44938 149.895 6.26183C148.811 6.05461 147.675 6.41611 146.599 6.16654C145.218 5.8489 144.242 4.62374 143.082 3.7873C140.652 2.03426 137.342 2.03729 134.558 3.08397C131.773 4.13065 129.409 6.0894 127.163 8.08747C126.696 8.50342 126.212 8.95265 126.024 9.55918C125.837 10.1657 126.115 11.2578 127.127 11.0611C127.459 11.0657 127.778 10.9462 128.1 10.8615C128.86 10.6588 129.669 10.6361 130.431 10.8343C131.628 11.1443 132.638 11.9611 133.774 12.4587C135.032 13.0093 136.453 13.1575 137.791 12.8777C138.963 12.6327 140.053 12.0745 141.217 11.7947C142.381 11.5149 143.728 11.5694 144.612 12.3997C144.855 12.6281 145.059 12.9125 145.347 13.0758C145.635 13.2407 146.058 13.2331 146.234 12.9458C146.402 12.669 146.263 12.2984 146.353 11.9853C146.52 11.403 147.115 11.2805 147.515 11.7267C147.915 12.1729 147.56 13.5462 148.269 13.5462C149.191 13.5462 148.694 11.7735 148.944 11.4272C149.194 11.0808 149.872 11.164 149.895 11.9883C149.907 12.4224 149.955 12.8565 150.056 13.2785C150.157 13.7005 150.559 14.1165 150.954 13.9652C151.106 13.9062 151.222 13.7731 151.313 13.634C151.876 12.7658 151.744 11.5013 152.466 10.7707C152.782 10.4501 153.239 10.2655 153.451 9.8632C153.844 9.11751 153.156 8.26898 152.514 7.73807Z" fill="white"/>
<path opacity="0.3" d="M150.69 4.48439C149.811 4.33011 149.516 5.50082 150.326 5.8487C151.761 6.4628 154.115 7.8377 152.637 9.54839C152.169 10.0899 151.323 9.99308 151.072 11.0473C150.952 11.554 151.333 12.938 150.739 12.9652C150.143 12.9925 150.28 12.1333 150.295 11.914C150.32 11.3302 149.939 10.8114 149.487 10.825C148.33 10.8598 148.739 12.4177 148.626 12.758C148.467 13.2375 147.9 13.1089 147.969 12.3829C148.044 11.5903 147.404 10.9324 146.505 11.3967C146.019 11.6478 146.023 12.2816 145.41 12.0441C144.868 11.8354 144.461 11.2561 143.906 11.014C142.864 10.5573 141.689 10.6601 140.624 10.9838C139.386 11.3604 138.215 12.088 136.903 12.1651C135.49 12.2498 134.104 11.7249 132.857 11.0912C131.808 10.5573 130.775 9.87056 129.585 9.75107C128.999 9.69208 128.469 9.83426 127.895 9.9235C126.888 10.0808 126.149 9.30941 126.603 8.22794C126.692 8.01467 126.48 7.66678 126.242 7.85585C125.365 8.55162 125.118 9.8751 125.904 10.7645C127.061 12.0698 128.545 11.0337 129.945 11.4406C131.535 11.9034 132.884 13.0363 134.501 13.4976C136.036 13.9363 137.56 13.8864 139.059 13.3282C140.396 12.8306 142.144 11.7854 143.543 12.637C144.179 13.0242 144.621 13.599 145.381 13.7487C145.852 13.841 146.348 13.7548 146.738 13.4765C146.766 13.543 146.792 13.6005 146.809 13.6383C147.076 14.2025 147.544 14.626 148.152 14.7304C148.695 14.8241 149.276 14.6396 149.628 14.1904C149.632 14.1859 149.635 14.1798 149.639 14.1753C149.793 14.322 149.976 14.4445 150.197 14.5337C150.354 14.5973 150.516 14.6305 150.679 14.6381C150.923 14.7561 151.229 14.7455 151.496 14.5095C151.576 14.4385 151.646 14.3658 151.712 14.2902C151.974 14.0724 152.163 13.7639 152.214 13.3857C152.226 13.2935 152.223 13.2088 152.213 13.1271C152.323 12.7414 152.406 12.339 152.545 11.9291C152.757 11.3075 153.242 10.9747 153.624 10.471C153.942 10.0521 154.135 9.5862 154.221 9.05984C154.592 6.79858 152.749 4.8474 150.693 4.4859L150.69 4.48439Z" fill="#336EC2"/>
<g opacity="0.15">
<path d="M125.594 5.31788C124.194 5.76862 124.095 7.78787 124.282 9.04782C124.538 10.7736 125.651 12.2 127.228 12.8383C128.889 13.5113 130.65 13.0621 132.322 13.528C134.145 14.0362 135.637 15.0814 137.6 15.0647C139.518 15.0481 141.031 14.068 142.841 13.6444C144.398 13.2784 145.855 14.3296 147.336 14.6715C151.214 15.5654 155.983 13.4917 156.858 9.15218C157.338 6.76993 156.581 4.5359 154.955 2.80706C153.371 1.12208 150.323 -0.809438 148.291 1.13116C147.556 1.83298 147.553 2.93865 147.957 3.80382C148.572 5.11974 150.373 5.36326 151.263 6.2239C151.684 6.63228 151.882 6.77598 152.099 7.38251C151.989 7.07546 152.138 7.78787 152.102 7.46418C152.14 7.81056 152.081 7.98147 152.049 8.08433C151.847 8.75892 151.197 9.43806 150.321 9.78594C149.153 10.2503 148.082 10.1126 146.874 9.76628C145.432 9.35184 144.07 8.96614 142.563 9.19C141.154 9.39873 139.935 10.1127 138.581 10.5135C137.3 10.8916 136.196 10.4802 134.994 10.0158C133.649 9.49704 132.325 9.23991 130.886 9.26562C129.686 9.2868 128.481 9.44562 127.595 8.53355C127.236 8.16449 126.945 7.82266 126.778 7.32049C126.586 6.7427 126.68 6.18457 126.364 5.64157C126.213 5.38292 125.884 5.22562 125.595 5.31939L125.594 5.31788Z" fill="#336EC2"/>
</g>
</g>
<g opacity="0.35">
<path d="M137.307 3.73597C137.304 3.74353 137.301 3.7526 137.297 3.76017C137.295 3.7647 137.294 3.76773 137.292 3.77227C137.292 3.77378 137.291 3.7768 137.29 3.77832C137.287 3.78588 137.285 3.7889 137.285 3.80252C137.285 3.82369 137.294 3.84487 137.309 3.86151C137.323 3.87814 137.344 3.88571 137.366 3.88571C137.379 3.88571 137.382 3.88571 137.389 3.88117C137.391 3.88117 137.393 3.87966 137.395 3.87814C137.399 3.87663 137.402 3.87512 137.407 3.87361C137.414 3.87058 137.423 3.86756 137.43 3.86302C137.448 3.85848 137.462 3.84941 137.474 3.83579C137.486 3.82218 137.494 3.80705 137.5 3.79042C137.509 3.75412 137.5 3.7163 137.474 3.68908C137.448 3.66185 137.411 3.65278 137.376 3.66185C137.358 3.66639 137.344 3.67546 137.332 3.68908C137.32 3.70269 137.311 3.71781 137.306 3.73445L137.307 3.73597Z" fill="#336EC2"/>
</g>
<g opacity="0.35">
<path d="M134.83 5.12141V5.09721C134.83 5.09721 134.83 5.09268 134.83 5.09116C134.83 5.07906 134.829 5.06696 134.823 5.05789C134.818 5.05032 134.814 5.04579 134.808 5.04125C134.804 5.03671 134.799 5.03369 134.793 5.03066C134.788 5.02764 134.782 5.02612 134.774 5.02612H134.761C134.752 5.03066 134.747 5.0352 134.741 5.04125C134.735 5.04579 134.729 5.05032 134.726 5.05789L134.72 5.0715C134.72 5.0715 134.719 5.08209 134.719 5.08814C134.719 5.08814 134.719 5.08965 134.719 5.09116V5.09721C134.719 5.10478 134.719 5.11385 134.719 5.12141C134.719 5.12898 134.719 5.13654 134.723 5.1441C134.726 5.15166 134.729 5.15771 134.735 5.16225C134.739 5.1683 134.747 5.17133 134.752 5.17435C134.76 5.17738 134.766 5.17889 134.774 5.17889H134.789C134.798 5.17435 134.807 5.16982 134.814 5.16225L134.823 5.15015C134.827 5.14108 134.83 5.132 134.83 5.12141Z" fill="#336EC2"/>
</g>
<g opacity="0.35">
<path d="M139.493 4.887L139.49 4.85977V4.85372C139.49 4.85372 139.49 4.84162 139.487 4.83557C139.486 4.82801 139.481 4.82044 139.476 4.81439L139.467 4.80683C139.467 4.80683 139.467 4.80683 139.465 4.80683C139.458 4.80381 139.452 4.80078 139.443 4.80078C139.435 4.80078 139.429 4.80381 139.421 4.80683C139.41 4.81288 139.402 4.82347 139.399 4.83557C139.398 4.84162 139.398 4.84767 139.396 4.85372V4.85977C139.395 4.86885 139.394 4.87792 139.394 4.887C139.394 4.89456 139.394 4.90061 139.398 4.90666C139.399 4.91271 139.404 4.91876 139.408 4.9233C139.413 4.92783 139.418 4.93237 139.424 4.93389C139.43 4.93691 139.436 4.93842 139.443 4.93842H139.456C139.465 4.93389 139.473 4.92935 139.478 4.9233L139.486 4.91271C139.49 4.90515 139.493 4.89607 139.493 4.887Z" fill="#336EC2"/>
</g>
<g opacity="0.15">
<path d="M149.646 7.10453C149.781 7.10453 149.782 6.88672 149.646 6.88672C149.51 6.88672 149.51 7.10453 149.646 7.10453Z" fill="#336EC2"/>
</g>
<g opacity="0.35">
<path d="M148.512 7.56262C148.577 7.56262 148.578 7.45825 148.512 7.45825C148.447 7.45825 148.447 7.56262 148.512 7.56262Z" fill="#336EC2"/>
</g>
<g opacity="0.15">
<path d="M150.869 7.67928C150.961 7.67928 150.963 7.52954 150.869 7.52954C150.775 7.52954 150.775 7.67928 150.869 7.67928Z" fill="#336EC2"/>
</g>
<g opacity="0.15">
<path d="M137.495 8.17692C137.565 8.17692 137.567 8.06348 137.495 8.06348C137.423 8.06348 137.423 8.17692 137.495 8.17692Z" fill="#336EC2"/>
</g>
<g opacity="0.15">
<path d="M129.832 7.47798C129.909 7.47798 129.909 7.35547 129.832 7.35547C129.756 7.35547 129.756 7.47798 129.832 7.47798Z" fill="#336EC2"/>
</g>
<g opacity="0.35">
<path d="M130.784 7.93638C130.907 7.93638 130.907 7.73975 130.784 7.73975C130.661 7.73975 130.661 7.93638 130.784 7.93638Z" fill="#336EC2"/>
</g>
<path d="M103.647 7.36835C100.961 7.19583 98.2525 7.41018 95.6238 8.00225C95.1861 8.10158 94.732 8.21921 94.3904 8.51983C94.0489 8.82044 93.8604 9.35762 94.0792 9.76148C94.2272 10.0333 94.5207 10.185 94.8091 10.2791C95.8237 10.6097 96.923 10.4189 97.9818 10.5209C99.0419 10.6228 100.221 11.1992 100.414 12.2801C100.492 12.7127 100.397 13.1636 100.484 13.5949C100.571 14.0249 100.971 14.4549 101.372 14.3099C101.959 14.0968 101.738 13.0957 102.194 12.6591C102.579 12.2932 103.249 12.5598 103.512 13.0264C103.776 13.493 103.762 14.0642 103.782 14.6039C103.817 15.5476 103.232 17.1147 103.696 17.929C104.301 18.9903 105.025 17.8662 105.328 17.4297C105.72 16.8611 106.174 17.0546 106.235 17.8662C106.316 18.9537 106.526 20.011 106.839 20.6763C107.062 21.1481 107.426 21.6513 107.927 21.7376C108.67 21.867 109.186 20.7194 109.386 19.9692C110.134 17.1644 110.241 14.055 109 11.4449C107.759 8.83351 104.941 6.90828 102.166 7.40233" fill="white"/>
<mask id="mask2_271_534" style="mask-type:luminance" maskUnits="userSpaceOnUse" x="93" y="7" width="17" height="15">
<path d="M103.647 7.36835C100.961 7.19583 98.2525 7.41018 95.6238 8.00225C95.1861 8.10158 94.732 8.21921 94.3904 8.51983C94.0489 8.82044 93.8604 9.35762 94.0792 9.76148C94.2272 10.0333 94.5207 10.185 94.8091 10.2791C95.8237 10.6097 96.923 10.4189 97.9818 10.5209C99.0419 10.6228 100.221 11.1992 100.414 12.2801C100.492 12.7127 100.397 13.1636 100.484 13.5949C100.571 14.0249 100.971 14.4549 101.372 14.3099C101.959 14.0968 101.738 13.0957 102.194 12.6591C102.579 12.2932 103.249 12.5598 103.512 13.0264C103.776 13.493 103.762 14.0642 103.782 14.6039C103.817 15.5476 103.232 17.1147 103.696 17.929C104.301 18.9903 105.025 17.8662 105.328 17.4297C105.72 16.8611 106.174 17.0546 106.235 17.8662C106.316 18.9537 106.526 20.011 106.839 20.6763C107.062 21.1481 107.426 21.6513 107.927 21.7376C108.67 21.867 109.186 20.7194 109.386 19.9692C110.134 17.1644 110.241 14.055 109 11.4449C107.759 8.83351 104.941 6.90828 102.166 7.40233" fill="white"/>
</mask>
<g mask="url(#mask2_271_534)">
<g opacity="0.3">
<path d="M94.6481 7.65977C93.5677 7.78655 93.3615 9.19943 93.8043 10.0568C94.7999 11.9834 97.1629 10.9534 98.6733 11.7167C100.123 12.45 98.9327 14.6562 100.471 15.379C101.02 15.6364 101.658 15.558 102.131 15.179C102.381 14.9777 102.867 13.7269 103.038 13.6982C102.782 13.6289 102.527 13.5583 102.271 13.489C103.798 14.9267 101.243 17.7107 102.992 19.0804C103.641 19.5888 104.442 19.432 105.082 18.9902C105.369 18.7929 105.811 18.4583 105.931 18.1106C105.841 18.0283 105.751 17.9446 105.661 17.8623C105.695 17.9956 105.723 18.1302 105.746 18.2661C105.752 18.5158 105.83 18.8125 105.867 19.0569C106.099 20.5652 107.002 22.4982 108.796 22.0931C110.862 21.6278 111.824 18.4805 111.798 16.6232C111.788 15.9175 110.919 15.8887 110.685 16.4677C110.329 17.3486 109.948 18.3446 109.497 19.1797C109.313 19.5183 108.982 20.2515 108.644 20.377C108.131 20.5665 107.809 20.0515 107.651 19.6529C107.275 18.7066 107.38 17.3669 106.71 16.6023C106.38 16.2246 105.89 16.0351 105.353 16.4246C104.983 16.6925 104.681 17.8675 104.15 17.6558C103.766 17.5042 104.175 16.2821 104.22 15.9305C104.308 15.2613 104.353 14.5176 104.209 13.8511C103.995 12.8682 103.184 11.5756 102.088 12.3193C101.573 12.6682 101.774 13.3923 101.334 13.6785C100.974 13.9125 100.967 13.012 100.919 12.6369C100.759 11.3704 100.023 10.5247 98.81 10.1914C97.6158 9.86339 93.545 10.4071 94.8037 7.94209C94.8618 7.82969 94.7923 7.64278 94.6468 7.65977H94.6481Z" fill="#336EC2"/>
</g>
<g opacity="0.15">
<path d="M100.344 2.94417C95.8928 -0.235777 89.3527 4.98311 90.9567 10.2268C92.6101 15.6339 98.963 14.2014 102.953 15.4065C102.753 15.3464 101.461 15.2706 101.658 14.736C101.699 14.621 102.115 15.8038 101.828 14.8889C103 18.6243 103.017 23.3975 107.556 24.4458C111.757 25.4156 114.285 21.5246 115.155 17.8258C115.824 14.9817 113.826 8.51333 110.843 13.1571C109.932 14.5752 109.633 19.1445 108.589 19.0674C107.542 18.9903 107.627 15.7751 107.255 14.4628C105.964 9.90791 103.087 10.0386 99.1578 9.6256C95.5778 9.24918 95.0137 8.00099 96.7379 7.03249C97.5981 6.33717 103.11 4.91906 100.346 2.94417H100.344Z" fill="#336EC2"/>
</g>
</g>
<g opacity="0.35">
<path d="M105.112 8.84266C105.107 8.8505 105.102 8.85703 105.097 8.86488C105.094 8.8688 105.092 8.87141 105.089 8.87533C105.089 8.87664 105.087 8.87925 105.085 8.88056C105.085 8.88056 105.084 8.88187 105.083 8.88317C105.082 8.88579 105.082 8.88579 105.079 8.89102C105.076 8.89494 105.075 8.90017 105.075 8.90539C105.075 8.90801 105.075 8.91062 105.075 8.91324C105.075 8.92108 105.076 8.92761 105.08 8.93545C105.083 8.94199 105.087 8.94852 105.092 8.95375L105.103 8.9629C105.112 8.96813 105.121 8.97074 105.131 8.97074C105.131 8.97074 105.141 8.96944 105.146 8.96813L105.159 8.9629C105.159 8.9629 105.16 8.96159 105.161 8.96029C105.162 8.96029 105.165 8.95767 105.166 8.95637C105.17 8.95375 105.174 8.95114 105.176 8.94852C105.184 8.9433 105.19 8.93807 105.198 8.93284C105.207 8.92761 105.214 8.91977 105.221 8.90931C105.226 8.89886 105.23 8.8884 105.23 8.87664L105.227 8.85965C105.224 8.84919 105.218 8.83874 105.211 8.83089C105.205 8.82436 105.198 8.82044 105.19 8.81782C105.183 8.8139 105.175 8.81129 105.166 8.8126C105.155 8.8126 105.145 8.81521 105.135 8.82174C105.126 8.82697 105.118 8.83481 105.112 8.84527V8.84266Z" fill="#336EC2"/>
</g>
<g opacity="0.15">
<path d="M106.455 9.49745C106.504 9.49745 106.505 9.41772 106.455 9.41772C106.404 9.41772 106.404 9.49745 106.455 9.49745Z" fill="#336EC2"/>
</g>
<g opacity="0.35">
<path d="M105.931 10.1471C105.959 10.1471 105.96 10.1013 105.931 10.1013C105.902 10.1013 105.902 10.1471 105.931 10.1471Z" fill="#336EC2"/>
</g>
<g opacity="0.15">
<path d="M108.671 17.6936C108.714 17.6936 108.715 17.623 108.671 17.623C108.627 17.623 108.627 17.6936 108.671 17.6936Z" fill="#336EC2"/>
</g>
<g opacity="0.35">
<path d="M109.396 15.89C109.474 15.89 109.475 15.7632 109.396 15.7632C109.316 15.7632 109.316 15.89 109.396 15.89Z" fill="#336EC2"/>
</g>
<g opacity="0.15">
<path d="M108.067 14.7777C108.108 14.7777 108.11 14.7097 108.067 14.7097C108.024 14.7097 108.024 14.7777 108.067 14.7777Z" fill="#336EC2"/>
</g>
<g opacity="0.35">
<path d="M97.6311 8.48596C97.664 8.48596 97.6652 8.43237 97.6311 8.43237C97.5969 8.43237 97.5969 8.48596 97.6311 8.48596Z" fill="#336EC2"/>
</g>
<g opacity="0.15">
<path d="M99.2028 8.97333H99.2193C99.2193 8.97333 99.2243 8.97333 99.2281 8.97333H99.2319C99.2383 8.97333 99.2446 8.97333 99.2509 8.97071L99.2648 8.96549C99.2711 8.96157 99.2762 8.95634 99.28 8.95111C99.2838 8.94719 99.2863 8.94327 99.2876 8.93804C99.2914 8.9315 99.2927 8.92366 99.2927 8.91582L99.2901 8.90014L99.2851 8.88576C99.2813 8.87922 99.2762 8.874 99.2711 8.87007C99.2661 8.86485 99.2598 8.86093 99.2522 8.85962C99.2496 8.85962 99.2471 8.85962 99.2446 8.85962C99.2421 8.85962 99.2395 8.85962 99.2357 8.85962C99.2357 8.85962 99.2345 8.85962 99.2332 8.85962H99.2294C99.2294 8.85962 99.2243 8.85962 99.2205 8.85962H99.2041C99.1965 8.85962 99.1889 8.86093 99.1826 8.86485C99.1763 8.86746 99.1699 8.87138 99.1649 8.87661C99.1598 8.88184 99.156 8.88837 99.1535 8.89491C99.1497 8.90144 99.1484 8.90929 99.1484 8.91713L99.151 8.93281C99.1535 8.94196 99.1586 8.95111 99.1649 8.95764L99.1763 8.96679C99.1851 8.97202 99.194 8.97464 99.2041 8.97464L99.2028 8.97333Z" fill="#336EC2"/>
</g>
<g opacity="0.35">
<path d="M100.573 7.98784C100.608 7.98784 100.608 7.93164 100.573 7.93164C100.537 7.93164 100.537 7.98784 100.573 7.98784Z" fill="#336EC2"/>
</g>
<path d="M11.3394 49.1986C14.128 46.6522 14.3907 42.2523 11.9262 39.3711C9.4616 36.49 5.20307 36.2185 2.41446 38.7649C-0.374149 41.3113 -0.636851 45.7111 1.8277 48.5923C4.29225 51.4735 8.55078 51.7449 11.3394 49.1986Z" fill="#00529D"/>
<path d="M6.36673 41.6766C6.35941 42.0078 6.60389 42.2755 6.91864 42.2937C7.23924 42.3012 7.50422 42.0381 7.513 41.7068C7.53057 41.3831 7.27584 41.1078 6.95523 41.0988C6.63463 41.0912 6.37551 41.3438 6.36673 41.675V41.6766ZM3.94828 39.379C4.07711 39.615 4.3494 39.7042 4.57192 39.5817C4.8003 39.4486 4.88667 39.1672 4.75784 38.9313C4.6378 38.7014 4.36697 38.6121 4.13713 38.7452C3.91461 38.8693 3.82823 39.1491 3.94828 39.3805V39.379ZM12.1654 44.6185C12.4187 44.626 12.6222 44.4203 12.6295 44.1586C12.6427 43.8879 12.4436 43.6761 12.1903 43.6686C11.9371 43.661 11.7233 43.8607 11.7101 44.1314C11.7028 44.3931 11.9122 44.6094 12.1654 44.6169V44.6185ZM4.05368 45.7544C4.05076 45.5562 3.90436 45.3929 3.71844 45.3868C3.52227 45.3747 3.35831 45.5351 3.3627 45.7332C3.35684 45.9253 3.50324 46.0887 3.69794 46.1008C3.88387 46.1068 4.04783 45.9465 4.05368 45.7544ZM1.58253 43.3404C1.32927 43.3328 1.11992 43.5491 1.11261 43.8093C1.10529 44.0709 1.29853 44.2918 1.55765 44.2887C1.81969 44.3023 2.02465 44.0966 2.03197 43.835C2.03929 43.5733 1.84604 43.3525 1.584 43.3388L1.58253 43.3404ZM9.3283 42.6128C9.17751 42.3209 8.83495 42.215 8.55241 42.3693C8.26986 42.5251 8.16007 42.8896 8.31085 43.1815C8.4675 43.4629 8.82031 43.5763 9.10285 43.4205C9.37515 43.2587 9.47909 42.9047 9.3283 42.6128ZM9.70454 42.2105C9.69282 42.4132 9.83775 42.575 10.0398 42.578C10.2257 42.5841 10.3838 42.4328 10.3955 42.2317C10.3926 42.0335 10.2462 41.8702 10.0603 41.8641C9.85825 41.8611 9.70014 42.0123 9.70454 42.2105ZM6.80006 40.5679C6.96695 40.6737 7.17336 40.6238 7.27584 40.4514C7.37832 40.279 7.33001 40.0657 7.16312 39.9598C7.00647 39.86 6.78981 39.9039 6.68733 40.0763C6.58485 40.2487 6.64341 40.468 6.80006 40.5679ZM4.41967 45.3445C4.57046 45.6364 4.91302 45.7423 5.19557 45.588C5.47811 45.4322 5.58058 45.0783 5.43126 44.7864C5.28047 44.4944 4.92766 44.381 4.65537 44.5428C4.37282 44.6986 4.26303 45.0631 4.41967 45.3445ZM9.41906 39.7193C9.63426 39.857 9.91974 39.7874 10.053 39.5635C10.1862 39.3397 10.1188 39.0462 9.90217 38.9086C9.6855 38.771 9.4015 38.8405 9.26828 39.0644C9.13506 39.2883 9.2024 39.5817 9.41906 39.7193ZM4.32891 48.2395C4.11371 48.1019 3.82823 48.1714 3.69502 48.3953C3.5618 48.6191 3.62914 48.9126 3.8458 49.0502C4.06247 49.1879 4.34647 49.1183 4.47969 48.8944C4.61291 48.6706 4.54557 48.3771 4.32891 48.2395ZM9.76602 45.6213C9.60352 45.7135 9.53618 45.9374 9.62548 46.1053C9.72357 46.2808 9.93145 46.3428 10.0939 46.2505C10.2667 46.1643 10.3326 45.9419 10.2345 45.7665C10.1452 45.5986 9.93877 45.5366 9.76602 45.6213ZM3.98195 42.3375C4.14445 42.2453 4.20447 42.032 4.12249 41.8535C4.0244 41.6781 3.81652 41.6176 3.65402 41.7083C3.47542 41.8036 3.4154 42.0169 3.51349 42.1923C3.59693 42.3708 3.80335 42.4328 3.98195 42.3375ZM8.26401 44.8726C8.10004 45.1463 8.18642 45.523 8.45139 45.6924C8.71637 45.8618 9.08089 45.7725 9.24485 45.4988C9.40882 45.225 9.33123 44.8544 9.05747 44.679C8.78371 44.5035 8.43383 44.5897 8.26401 44.8726ZM5.47811 43.0968C5.64793 42.8125 5.56448 42.4525 5.29072 42.277C5.01696 42.1016 4.66708 42.1878 4.49726 42.4706C4.32744 42.7535 4.41089 43.115 4.68465 43.2904C4.95841 43.4659 5.31415 43.3706 5.47811 43.0968ZM7.39003 46.2883C7.39735 45.9571 7.14262 45.6833 6.82202 45.6742C6.50141 45.6667 6.24229 45.9193 6.23351 46.2505C6.22619 46.5817 6.47067 46.8495 6.79127 46.8585C7.10456 46.8767 7.371 46.6135 7.38856 46.2883H7.39003ZM6.94792 47.391C6.78102 47.2851 6.56875 47.3456 6.47213 47.5074C6.36965 47.6799 6.41796 47.8931 6.58486 47.999C6.75175 48.1049 6.95816 48.055 7.06064 47.8825C7.15726 47.7207 7.11481 47.4968 6.94792 47.391ZM10.5243 47.6148L8.74126 47.0642L8.43675 46.4638L9.30341 46.736C9.41906 46.7678 9.55521 46.7012 9.59181 46.5696C9.62255 46.4502 9.55814 46.3095 9.43078 46.2717L8.12493 45.8724L7.49982 44.6759C7.63304 44.5655 7.71503 44.4067 7.76041 44.2403L9.0765 44.2812L10.0061 45.3082L10.3355 45.3233C10.4321 45.231 10.4292 45.0753 10.3501 44.983L9.72649 44.3054L10.3765 44.3281L11.6574 45.7196C11.7467 45.8194 11.8697 45.8406 11.9868 45.7347C12.0674 45.6455 12.0747 45.4973 11.9854 45.3974L10.8098 44.1027L12.0703 42.8775C12.1508 42.7883 12.1581 42.6401 12.0688 42.5402C11.9883 42.448 11.8448 42.4389 11.7482 42.5327L10.3926 43.8501L9.7426 43.8274L10.3926 43.1921C10.4892 43.0999 10.4965 42.9501 10.4072 42.8518C10.3179 42.752 10.1671 42.755 10.0778 42.8367L9.08821 43.8138L7.77212 43.7729C7.73406 43.6096 7.655 43.4462 7.53642 43.3283L8.2318 42.1636L9.55814 41.8475C9.6855 41.8157 9.76309 41.6841 9.73381 41.554C9.69722 41.433 9.56985 41.3514 9.45859 41.3786L8.56997 41.5964L8.91547 41.0186L10.7234 40.5769C10.8508 40.5452 10.9284 40.4136 10.8991 40.2835C10.8625 40.1625 10.7454 40.0869 10.6239 40.1081L8.94328 40.5195L8.54509 38.7831C8.50849 38.6621 8.39137 38.5864 8.26986 38.6076C8.1425 38.6394 8.06491 38.771 8.09419 38.901L8.52166 40.769L8.17617 41.3468L7.97561 40.4363C7.93901 40.3153 7.81165 40.2336 7.6916 40.2548C7.56424 40.285 7.48665 40.4181 7.51593 40.5482L7.83653 41.914L7.14116 43.0787C6.98598 43.0212 6.8103 43.0212 6.65073 43.0605L6.02563 41.8641L6.42675 40.5119C6.45749 40.3924 6.39308 40.2517 6.26571 40.2139C6.15006 40.1822 6.01391 40.2487 5.97731 40.3803L5.72991 41.2712L5.4093 40.6753L5.94218 38.833C5.97878 38.7029 5.90851 38.5728 5.79139 38.5411C5.66549 38.5032 5.53959 38.5758 5.50885 38.6968L5.00379 40.403L3.35538 39.8978C3.22948 39.86 3.10358 39.9326 3.07284 40.0536C3.03624 40.1837 3.07723 40.2941 3.22362 40.3455L5.00086 40.9052L5.32147 41.5011L4.45481 41.2288C4.32891 41.191 4.20301 41.2636 4.16641 41.3952C4.12249 41.5359 4.20008 41.6554 4.31719 41.6871L5.62304 42.0865L6.24815 43.2829C6.12371 43.3994 6.02416 43.5461 5.98756 43.7185L4.67147 43.6777L3.74186 42.6506C3.65256 42.5508 3.50177 42.5538 3.42126 42.6431C3.32464 42.7353 3.31732 42.8851 3.40662 42.9834L4.03026 43.661L3.36416 43.6429L2.08906 42.2423C2.00854 42.15 1.86508 42.1409 1.76846 42.2347C1.67183 42.327 1.66451 42.4767 1.75382 42.575L2.93522 43.8607L1.68501 45.0919C1.58839 45.1842 1.57521 45.343 1.67037 45.4322C1.75674 45.5154 1.8885 45.5426 1.99683 45.4307L3.35245 44.1133L4.01269 44.142L3.3466 44.7803C3.25729 44.8635 3.25876 45.0178 3.33928 45.1116C3.40515 45.1811 3.55155 45.2326 3.66866 45.1267L4.65244 44.1586L5.96853 44.1995C6.00659 44.3628 6.08565 44.5262 6.19837 44.6533L5.51471 45.7982L4.18251 46.1234C4.05515 46.1552 3.98341 46.2762 4.01269 46.4078C4.02733 46.4728 4.06393 46.5243 4.11371 46.556C4.17226 46.5938 4.23375 46.6044 4.2967 46.5893L5.16921 46.376L4.82372 46.9538L3.01574 47.3955C2.88838 47.4273 2.81664 47.5483 2.84592 47.6799C2.86056 47.7449 2.89716 47.7963 2.94694 47.8281C2.99671 47.8598 3.05673 47.8704 3.12115 47.8553L4.80176 47.4439L5.19996 49.1803C5.2146 49.2453 5.2512 49.2968 5.30097 49.3285C5.35074 49.3603 5.41077 49.3709 5.47518 49.3558C5.60254 49.324 5.67428 49.203 5.645 49.0714L5.21753 47.2034L5.56302 46.6256L5.77968 47.5331C5.79432 47.5982 5.83092 47.6496 5.88069 47.6814C5.93047 47.7131 5.99049 47.7237 6.0549 47.7086C6.18227 47.6768 6.254 47.5558 6.22472 47.4242L5.90997 46.0478L6.59364 44.9028C6.76492 44.9558 6.93035 44.9497 7.0987 44.9179L7.71502 46.1083L7.31976 47.4515C7.28609 47.5982 7.35489 47.7116 7.48079 47.7494C7.59645 47.7812 7.73259 47.7146 7.76334 47.5936L8.02685 46.6982L8.3372 47.2881L7.80433 49.1304C7.76919 49.2348 7.80872 49.3709 7.94926 49.4329C8.07955 49.4873 8.20106 49.3981 8.2479 49.2741L8.74272 47.5619L10.3853 48.0777C10.5112 48.1155 10.6371 48.0429 10.6839 47.9188C10.7205 47.7888 10.6502 47.6587 10.5229 47.6209L10.5243 47.6148ZM9.79969 48.5798C9.67965 48.3499 9.39271 48.2637 9.17019 48.3877C8.94767 48.5118 8.87008 48.7976 8.99013 49.029C9.10431 49.2695 9.381 49.3482 9.60499 49.2242C9.82751 49.1001 9.91974 48.8097 9.80116 48.5798H9.79969Z" fill="#B4E0FC"/>
<path d="M12.3909 38.2023L11.5521 39.6075C11.4891 39.7134 10.7645 39.37 9.9344 38.8406C9.10434 38.3112 8.48216 37.7955 8.54658 37.6896L9.38542 36.2844L12.3909 38.2008V38.2023Z" fill="#4BAFF9"/>
<path d="M12.3925 38.2009C12.4557 38.095 11.8338 37.5798 11.0033 37.0503C10.1728 36.5208 9.44833 36.1774 9.38506 36.2833C9.3218 36.3892 9.94374 36.9044 10.7742 37.4339C11.6047 37.9634 12.3292 38.3068 12.3925 38.2009Z" fill="#4BAFF9"/>
<path d="M11.5389 36.1528C11.7556 36.2904 11.8214 36.5839 11.6882 36.8077L11.2578 37.5277L11.1436 37.4551L11.3969 37.0316H11.394L11.5711 36.7336C11.6648 36.5778 11.6179 36.3721 11.4657 36.2753C11.3134 36.1785 11.1158 36.2269 11.0221 36.3842L10.845 36.6807L10.6649 36.9832L10.5917 37.1042L10.4746 37.0286L10.905 36.3086C11.0382 36.0847 11.3222 36.0167 11.5389 36.1543V36.1528Z" fill="#4BAFF9"/>
<path d="M5.39429 38.7498C6.2346 37.9769 7.23887 37.5171 8.35147 37.3416C9.24009 37.2025 10.1433 37.3522 11.0027 37.0512C11.4302 37.8786 12.187 38.4095 12.7419 39.1401C13.4358 40.0551 13.8618 41.1018 13.9599 42.2589C13.9833 42.5387 14.402 42.4722 14.3786 42.1924C14.298 41.2516 14.017 40.3788 13.5426 39.5711C13.0683 38.7619 12.2968 38.166 11.742 37.4309C12.5384 37.7228 13.4387 37.8937 14.2366 37.6759C14.9129 37.4929 15.5424 36.9166 15.4443 36.1346C15.1706 33.955 12.108 35.9803 11.1754 36.602C10.909 35.4873 10.0218 31.845 8.37782 33.2381C7.78785 33.7388 7.86398 34.6024 8.23436 35.215C8.67208 35.938 9.44065 36.4523 10.2136 36.8032C9.32207 36.9454 8.36465 36.8334 7.48189 37.086C6.60059 37.3386 5.81737 37.7742 5.13371 38.4034C4.93168 38.5895 5.1908 38.9343 5.39429 38.7483V38.7498ZM11.5356 36.8788C12.3905 36.3055 14.7738 34.7597 14.9466 36.2133C15.1442 37.8877 12.5662 37.2766 11.5356 36.8788ZM10.7275 36.5476C9.71441 36.1074 7.43065 34.7264 8.68672 33.6465C9.7759 32.7102 10.4859 35.5236 10.7275 36.5476Z" fill="#69BBF9"/>
<path opacity="0.21" d="M12.5003 43.0999C12.5003 43.0999 12.206 46.0328 9.8315 48.0384C7.45697 50.044 6.49223 48.719 7.7644 47.5907C9.03657 46.4608 9.85639 46.0585 10.8255 44.5535C11.7947 43.05 12.3729 42.2574 12.5003 43.1014V43.0999ZM6.42928 48.7342C6.42928 48.7342 5.83199 49.5857 5.13661 49.0155C4.44123 48.4453 4.60373 48.35 5.0883 48.1866C5.5714 48.0233 6.28581 47.9159 6.42928 48.7342Z" fill="white"/>
</g>
<defs>
<clipPath id="clip0_271_534">
<rect width="157" height="51" fill="white"/>
</clipPath>
</defs>
</svg>
